<?xml version="1.0" encoding="utf-8" standalone="no"?>
<!DOCTYPE svg PUBLIC "-//W3C//DTD SVG 1.1//EN"
  "http://www.w3.org/Graphics/SVG/1.1/DTD/svg11.dtd">
<svg xmlns:xlink="http://www.w3.org/1999/xlink" width="362.878125pt" height="360.718125pt" viewBox="0 0 362.878125 360.718125" xmlns="http://www.w3.org/2000/svg" version="1.1">
 <metadata>
  <rdf:RDF xmlns:dc="http://purl.org/dc/elements/1.1/" xmlns:cc="http://creativecommons.org/ns#" xmlns:rdf="http://www.w3.org/1999/02/22-rdf-syntax-ns#">
   <cc:Work>
    <dc:type rdf:resource="http://purl.org/dc/dcmitype/StillImage"/>
    <dc:date>2024-04-19T06:07:01.358298</dc:date>
    <dc:format>image/svg+xml</dc:format>
    <dc:creator>
     <cc:Agent>
      <dc:title>Matplotlib v3.8.0, https://matplotlib.org/</dc:title>
     </cc:Agent>
    </dc:creator>
   </cc:Work>
  </rdf:RDF>
 </metadata>
 <defs>
  <style type="text/css">*{stroke-linejoin: round; stroke-linecap: butt}</style>
 </defs>
 <g id="figure_1">
  <g id="patch_1">
   <path d="M 0 360.718125 
L 362.878125 360.718125 
L 362.878125 0 
L 0 0 
z
" style="fill: #ffffff"/>
  </g>
  <g id="axes_1">
   <g id="patch_2">
    <path d="M 20.878125 339.84 
L 355.678125 339.84 
L 355.678125 7.2 
L 20.878125 7.2 
z
" style="fill: #ffffff"/>
   </g>
   <g id="PolyCollection_1">
    <defs>
     <path id="m4687d7e28d" d="M 189.880039 -208.656113 
L 189.880039 -289.930282 
L 193.083867 -287.048567 
L 196.287694 -270.331074 
L 199.491522 -262.287022 
L 202.69535 -245.208466 
L 205.899178 -233.771955 
L 209.103005 -220.140449 
L 212.306833 -231.979902 
L 215.510661 -208.877959 
L 218.714489 -213.784418 
L 221.918316 -240.653445 
L 225.122144 -241.521238 
L 228.325972 -263.246225 
L 231.5298 -243.562498 
L 234.733627 -231.039087 
L 237.937455 -246.468269 
L 241.141283 -215.951361 
L 244.345111 -200.953041 
L 247.548938 -183.554545 
L 250.752766 -168.899587 
L 253.956594 -178.394579 
L 257.160422 -166.844326 
L 260.364249 -176.287073 
L 263.568077 -158.90313 
L 266.771905 -155.789607 
L 269.975733 -170.251361 
L 273.17956 -155.9058 
L 276.383388 -142.100693 
L 279.587216 -127.370179 
L 282.791044 -149.510969 
L 285.994871 -144.863063 
L 289.198699 -132.1187 
L 292.402527 -130.009431 
L 295.606355 -132.640102 
L 298.810182 -130.953204 
L 302.01401 -119.16733 
L 305.217838 -117.272294 
L 308.421666 -127.179391 
L 311.625493 -143.348497 
L 314.829321 -146.456113 
L 318.033149 -161.709973 
L 321.236977 -155.619498 
L 324.440804 -149.771531 
L 327.644632 -152.118808 
L 330.84846 -156.126823 
L 334.052288 -170.666868 
L 337.256115 -173.445411 
L 340.459943 -186.911118 
L 340.459943 -105.63695 
L 340.459943 -105.63695 
L 337.256115 -92.171242 
L 334.052288 -89.392699 
L 330.84846 -74.852654 
L 327.644632 -70.844639 
L 324.440804 -68.497362 
L 321.236977 -74.345329 
L 318.033149 -80.435804 
L 314.829321 -65.181944 
L 311.625493 -62.074328 
L 308.421666 -45.905222 
L 305.217838 -35.998125 
L 302.01401 -37.893161 
L 298.810182 -49.679035 
L 295.606355 -51.365934 
L 292.402527 -48.735262 
L 289.198699 -50.844532 
L 285.994871 -63.588894 
L 282.791044 -68.2368 
L 279.587216 -46.096011 
L 276.383388 -60.826525 
L 273.17956 -74.631631 
L 269.975733 -88.977192 
L 266.771905 -74.515438 
L 263.568077 -77.628961 
L 260.364249 -95.012904 
L 257.160422 -85.570157 
L 253.956594 -97.12041 
L 250.752766 -87.625418 
L 247.548938 -102.280376 
L 244.345111 -119.678873 
L 241.141283 -134.677193 
L 237.937455 -165.194101 
L 234.733627 -149.764918 
L 231.5298 -162.288329 
L 228.325972 -181.972056 
L 225.122144 -160.247069 
L 221.918316 -159.379276 
L 218.714489 -132.51025 
L 215.510661 -127.60379 
L 212.306833 -150.705734 
L 209.103005 -138.86628 
L 205.899178 -152.497787 
L 202.69535 -163.934297 
L 199.491522 -181.012853 
L 196.287694 -189.056906 
L 193.083867 -205.774398 
L 189.880039 -208.656113 
z
" style="stroke: #9e3ca8; stroke-opacity: 0.2"/>
    </defs>
    <g clip-path="url(#pea14553d70)">
     <use xlink:href="#m4687d7e28d" x="0" y="360.718125" style="fill: #9e3ca8; fill-opacity: 0.2; stroke: #9e3ca8; stroke-opacity: 0.2"/>
    </g>
   </g>
   <g id="matplotlib.axis_1">
    <g id="text_1">
     <!-- Time -->
     <g transform="translate(176.044531 351.438437) scale(0.1 -0.1)">
      <defs>
       <path id="DejaVuSans-54" d="M -19 4666 
L 3928 4666 
L 3928 4134 
L 2272 4134 
L 2272 0 
L 1638 0 
L 1638 4134 
L -19 4134 
L -19 4666 
z
" transform="scale(0.015625)"/>
       <path id="DejaVuSans-69" d="M 603 3500 
L 1178 3500 
L 1178 0 
L 603 0 
L 603 3500 
z
M 603 4863 
L 1178 4863 
L 1178 4134 
L 603 4134 
L 603 4863 
z
" transform="scale(0.015625)"/>
       <path id="DejaVuSans-6d" d="M 3328 2828 
Q 3544 3216 3844 3400 
Q 4144 3584 4550 3584 
Q 5097 3584 5394 3201 
Q 5691 2819 5691 2113 
L 5691 0 
L 5113 0 
L 5113 2094 
Q 5113 2597 4934 2840 
Q 4756 3084 4391 3084 
Q 3944 3084 3684 2787 
Q 3425 2491 3425 1978 
L 3425 0 
L 2847 0 
L 2847 2094 
Q 2847 2600 2669 2842 
Q 2491 3084 2119 3084 
Q 1678 3084 1418 2786 
Q 1159 2488 1159 1978 
L 1159 0 
L 581 0 
L 581 3500 
L 1159 3500 
L 1159 2956 
Q 1356 3278 1631 3431 
Q 1906 3584 2284 3584 
Q 2666 3584 2933 3390 
Q 3200 3197 3328 2828 
z
" transform="scale(0.015625)"/>
       <path id="DejaVuSans-65" d="M 3597 1894 
L 3597 1613 
L 953 1613 
Q 991 1019 1311 708 
Q 1631 397 2203 397 
Q 2534 397 2845 478 
Q 3156 559 3463 722 
L 3463 178 
Q 3153 47 2828 -22 
Q 2503 -91 2169 -91 
Q 1331 -91 842 396 
Q 353 884 353 1716 
Q 353 2575 817 3079 
Q 1281 3584 2069 3584 
Q 2775 3584 3186 3129 
Q 3597 2675 3597 1894 
z
M 3022 2063 
Q 3016 2534 2758 2815 
Q 2500 3097 2075 3097 
Q 1594 3097 1305 2825 
Q 1016 2553 972 2059 
L 3022 2063 
z
" transform="scale(0.015625)"/>
      </defs>
      <use xlink:href="#DejaVuSans-54"/>
      <use xlink:href="#DejaVuSans-69" x="57.958984"/>
      <use xlink:href="#DejaVuSans-6d" x="85.742188"/>
      <use xlink:href="#DejaVuSans-65" x="183.154297"/>
     </g>
    </g>
   </g>
   <g id="matplotlib.axis_2">
    <g id="text_2">
     <!-- Value -->
     <g transform="translate(14.798438 187.25125) rotate(-90) scale(0.1 -0.1)">
      <defs>
       <path id="DejaVuSans-56" d="M 1831 0 
L 50 4666 
L 709 4666 
L 2188 738 
L 3669 4666 
L 4325 4666 
L 2547 0 
L 1831 0 
z
" transform="scale(0.015625)"/>
       <path id="DejaVuSans-61" d="M 2194 1759 
Q 1497 1759 1228 1600 
Q 959 1441 959 1056 
Q 959 750 1161 570 
Q 1363 391 1709 391 
Q 2188 391 2477 730 
Q 2766 1069 2766 1631 
L 2766 1759 
L 2194 1759 
z
M 3341 1997 
L 3341 0 
L 2766 0 
L 2766 531 
Q 2569 213 2275 61 
Q 1981 -91 1556 -91 
Q 1019 -91 701 211 
Q 384 513 384 1019 
Q 384 1609 779 1909 
Q 1175 2209 1959 2209 
L 2766 2209 
L 2766 2266 
Q 2766 2663 2505 2880 
Q 2244 3097 1772 3097 
Q 1472 3097 1187 3025 
Q 903 2953 641 2809 
L 641 3341 
Q 956 3463 1253 3523 
Q 1550 3584 1831 3584 
Q 2591 3584 2966 3190 
Q 3341 2797 3341 1997 
z
" transform="scale(0.015625)"/>
       <path id="DejaVuSans-6c" d="M 603 4863 
L 1178 4863 
L 1178 0 
L 603 0 
L 603 4863 
z
" transform="scale(0.015625)"/>
       <path id="DejaVuSans-75" d="M 544 1381 
L 544 3500 
L 1119 3500 
L 1119 1403 
Q 1119 906 1312 657 
Q 1506 409 1894 409 
Q 2359 409 2629 706 
Q 2900 1003 2900 1516 
L 2900 3500 
L 3475 3500 
L 3475 0 
L 2900 0 
L 2900 538 
Q 2691 219 2414 64 
Q 2138 -91 1772 -91 
Q 1169 -91 856 284 
Q 544 659 544 1381 
z
M 1991 3584 
L 1991 3584 
z
" transform="scale(0.015625)"/>
      </defs>
      <use xlink:href="#DejaVuSans-56"/>
      <use xlink:href="#DejaVuSans-61" x="60.658203"/>
      <use xlink:href="#DejaVuSans-6c" x="121.9375"/>
      <use xlink:href="#DejaVuSans-75" x="149.720703"/>
      <use xlink:href="#DejaVuSans-65" x="213.099609"/>
     </g>
    </g>
   </g>
   <g id="line2d_1">
    <path d="M 36.096307 185.609978 
L 39.300135 180.189571 
L 42.503962 166.931885 
L 45.70779 136.577429 
L 48.911618 111.280059 
L 52.115446 124.517967 
L 55.319273 111.648359 
L 58.523101 113.698597 
L 61.726929 115.096768 
L 64.930757 109.534927 
L 68.134584 107.583756 
L 71.338412 87.884611 
L 74.54224 77.575826 
L 77.746068 75.927654 
L 80.949895 69.915218 
L 84.153723 65.395367 
L 87.357551 45.157028 
L 90.561379 47.936039 
L 93.765206 43.69532 
L 96.969034 55.26464 
L 100.172862 89.846661 
L 103.37669 80.992943 
L 106.580517 69.283554 
L 109.784345 79.336695 
L 112.988173 48.591292 
L 116.192001 68.291685 
L 119.395828 67.671854 
L 122.599656 70.207389 
L 125.803484 49.44483 
L 129.007312 29.541345 
L 132.211139 27.442474 
L 135.414967 22.32 
L 138.618795 34.345675 
L 141.822623 61.176939 
L 145.02645 65.889651 
L 148.230278 63.771796 
L 151.434106 47.106653 
L 154.637934 30.819583 
L 157.841761 36.066194 
L 161.045589 40.161095 
L 164.249417 54.364473 
L 167.453245 73.599603 
L 170.657072 96.712218 
L 173.8609 70.28761 
L 177.064728 77.191203 
L 180.268556 83.125223 
L 183.472383 100.095207 
L 186.676211 89.56356 
L 189.880039 111.424928 
L 193.083867 114.306643 
L 196.287694 126.436359 
L 199.491522 121.195496 
L 202.69535 128.114707 
L 205.899178 144.10719 
L 209.103005 144.488938 
L 212.306833 138.686885 
L 215.510661 137.785863 
L 218.714489 133.688671 
L 221.918316 142.281004 
L 225.122144 147.194586 
L 228.325972 156.303529 
L 231.5298 161.173927 
L 234.733627 172.188558 
L 237.937455 195.572255 
L 241.141283 193.168895 
L 244.345111 198.611297 
L 247.548938 220.693466 
L 250.752766 214.424759 
L 253.956594 226.714746 
L 257.160422 226.011109 
L 260.364249 216.135071 
L 263.568077 214.387908 
L 266.771905 198.953934 
L 269.975733 215.680508 
L 273.17956 210.230511 
L 276.383388 219.506739 
L 279.587216 231.302292 
L 282.791044 239.143212 
L 285.994871 243.363408 
L 289.198699 242.602609 
L 292.402527 258.385373 
L 295.606355 246.183053 
L 298.810182 239.875332 
L 302.01401 260.68482 
L 305.217838 240.52541 
L 308.421666 214.844274 
L 311.625493 198.876885 
L 314.829321 201.314092 
L 318.033149 215.81818 
L 321.236977 201.534899 
L 324.440804 206.996211 
L 327.644632 190.437343 
L 330.84846 187.616114 
L 334.052288 174.38686 
L 337.256115 169.559629 
L 340.459943 159.988605 
" clip-path="url(#pea14553d70)" style="fill: none; stroke: #1f77b4; stroke-width: 2; stroke-linecap: square"/>
   </g>
   <g id="line2d_2">
    <path d="M 189.880039 111.424928 
L 193.083867 114.306643 
L 196.287694 131.024135 
L 199.491522 139.068187 
L 202.69535 156.146744 
L 205.899178 167.583254 
L 209.103005 181.214761 
L 212.306833 169.375307 
L 215.510661 192.477251 
L 218.714489 187.570791 
L 221.918316 160.701765 
L 225.122144 159.833972 
L 228.325972 138.108984 
L 231.5298 157.792712 
L 234.733627 170.316123 
L 237.937455 154.88694 
L 241.141283 185.403848 
L 244.345111 200.402168 
L 247.548938 217.800664 
L 250.752766 232.455623 
L 253.956594 222.960631 
L 257.160422 234.510884 
L 260.364249 225.068137 
L 263.568077 242.45208 
L 266.771905 245.565602 
L 269.975733 231.103849 
L 273.17956 245.449409 
L 276.383388 259.254516 
L 279.587216 273.98503 
L 282.791044 251.84424 
L 285.994871 256.492147 
L 289.198699 269.236509 
L 292.402527 271.345778 
L 295.606355 268.715107 
L 298.810182 270.402005 
L 302.01401 282.187879 
L 305.217838 284.082916 
L 308.421666 274.175819 
L 311.625493 258.006713 
L 314.829321 254.899097 
L 318.033149 239.645237 
L 321.236977 245.735711 
L 324.440804 251.583678 
L 327.644632 249.236402 
L 330.84846 245.228386 
L 334.052288 230.688342 
L 337.256115 227.909799 
L 340.459943 214.444091 
" clip-path="url(#pea14553d70)" style="fill: none; stroke: #9e3ca8; stroke-width: 2; stroke-linecap: square"/>
   </g>
   <g id="line2d_3">
    <path d="M 189.880039 339.84 
L 189.880039 7.2 
" clip-path="url(#pea14553d70)" style="fill: none; stroke-dasharray: 7.4,3.2; stroke-dashoffset: 0; stroke: #808080; stroke-width: 2"/>
   </g>
   <g id="patch_3">
    <path d="M 20.878125 339.84 
L 20.878125 7.2 
" style="fill: none; stroke: #000000; stroke-width: 0.8; stroke-linejoin: miter; stroke-linecap: square"/>
   </g>
   <g id="patch_4">
    <path d="M 355.678125 339.84 
L 355.678125 7.2 
" style="fill: none; stroke: #000000; stroke-width: 0.8; stroke-linejoin: miter; stroke-linecap: square"/>
   </g>
   <g id="patch_5">
    <path d="M 20.878125 339.84 
L 355.678125 339.84 
" style="fill: none; stroke: #000000; stroke-width: 0.8; stroke-linejoin: miter; stroke-linecap: square"/>
   </g>
   <g id="patch_6">
    <path d="M 20.878125 7.2 
L 355.678125 7.2 
" style="fill: none; stroke: #000000; stroke-width: 0.8; stroke-linejoin: miter; stroke-linecap: square"/>
   </g>
   <g id="legend_1">
    <g id="patch_7">
     <path d="M 251.384375 44.55625 
L 348.678125 44.55625 
Q 350.678125 44.55625 350.678125 42.55625 
L 350.678125 14.2 
Q 350.678125 12.2 348.678125 12.2 
L 251.384375 12.2 
Q 249.384375 12.2 249.384375 14.2 
L 249.384375 42.55625 
Q 249.384375 44.55625 251.384375 44.55625 
z
" style="fill: #ffffff; opacity: 0.8; stroke: #cccccc; stroke-linejoin: miter"/>
    </g>
    <g id="line2d_4">
     <path d="M 253.384375 20.298437 
L 263.384375 20.298437 
L 273.384375 20.298437 
" style="fill: none; stroke: #1f77b4; stroke-width: 2; stroke-linecap: square"/>
    </g>
    <g id="text_3">
     <!-- Ground Truth -->
     <g transform="translate(281.384375 23.798437) scale(0.1 -0.1)">
      <defs>
       <path id="DejaVuSans-47" d="M 3809 666 
L 3809 1919 
L 2778 1919 
L 2778 2438 
L 4434 2438 
L 4434 434 
Q 4069 175 3628 42 
Q 3188 -91 2688 -91 
Q 1594 -91 976 548 
Q 359 1188 359 2328 
Q 359 3472 976 4111 
Q 1594 4750 2688 4750 
Q 3144 4750 3555 4637 
Q 3966 4525 4313 4306 
L 4313 3634 
Q 3963 3931 3569 4081 
Q 3175 4231 2741 4231 
Q 1884 4231 1454 3753 
Q 1025 3275 1025 2328 
Q 1025 1384 1454 906 
Q 1884 428 2741 428 
Q 3075 428 3337 486 
Q 3600 544 3809 666 
z
" transform="scale(0.015625)"/>
       <path id="DejaVuSans-72" d="M 2631 2963 
Q 2534 3019 2420 3045 
Q 2306 3072 2169 3072 
Q 1681 3072 1420 2755 
Q 1159 2438 1159 1844 
L 1159 0 
L 581 0 
L 581 3500 
L 1159 3500 
L 1159 2956 
Q 1341 3275 1631 3429 
Q 1922 3584 2338 3584 
Q 2397 3584 2469 3576 
Q 2541 3569 2628 3553 
L 2631 2963 
z
" transform="scale(0.015625)"/>
       <path id="DejaVuSans-6f" d="M 1959 3097 
Q 1497 3097 1228 2736 
Q 959 2375 959 1747 
Q 959 1119 1226 758 
Q 1494 397 1959 397 
Q 2419 397 2687 759 
Q 2956 1122 2956 1747 
Q 2956 2369 2687 2733 
Q 2419 3097 1959 3097 
z
M 1959 3584 
Q 2709 3584 3137 3096 
Q 3566 2609 3566 1747 
Q 3566 888 3137 398 
Q 2709 -91 1959 -91 
Q 1206 -91 779 398 
Q 353 888 353 1747 
Q 353 2609 779 3096 
Q 1206 3584 1959 3584 
z
" transform="scale(0.015625)"/>
       <path id="DejaVuSans-6e" d="M 3513 2113 
L 3513 0 
L 2938 0 
L 2938 2094 
Q 2938 2591 2744 2837 
Q 2550 3084 2163 3084 
Q 1697 3084 1428 2787 
Q 1159 2491 1159 1978 
L 1159 0 
L 581 0 
L 581 3500 
L 1159 3500 
L 1159 2956 
Q 1366 3272 1645 3428 
Q 1925 3584 2291 3584 
Q 2894 3584 3203 3211 
Q 3513 2838 3513 2113 
z
" transform="scale(0.015625)"/>
       <path id="DejaVuSans-64" d="M 2906 2969 
L 2906 4863 
L 3481 4863 
L 3481 0 
L 2906 0 
L 2906 525 
Q 2725 213 2448 61 
Q 2172 -91 1784 -91 
Q 1150 -91 751 415 
Q 353 922 353 1747 
Q 353 2572 751 3078 
Q 1150 3584 1784 3584 
Q 2172 3584 2448 3432 
Q 2725 3281 2906 2969 
z
M 947 1747 
Q 947 1113 1208 752 
Q 1469 391 1925 391 
Q 2381 391 2643 752 
Q 2906 1113 2906 1747 
Q 2906 2381 2643 2742 
Q 2381 3103 1925 3103 
Q 1469 3103 1208 2742 
Q 947 2381 947 1747 
z
" transform="scale(0.015625)"/>
       <path id="DejaVuSans-20" transform="scale(0.015625)"/>
       <path id="DejaVuSans-74" d="M 1172 4494 
L 1172 3500 
L 2356 3500 
L 2356 3053 
L 1172 3053 
L 1172 1153 
Q 1172 725 1289 603 
Q 1406 481 1766 481 
L 2356 481 
L 2356 0 
L 1766 0 
Q 1100 0 847 248 
Q 594 497 594 1153 
L 594 3053 
L 172 3053 
L 172 3500 
L 594 3500 
L 594 4494 
L 1172 4494 
z
" transform="scale(0.015625)"/>
       <path id="DejaVuSans-68" d="M 3513 2113 
L 3513 0 
L 2938 0 
L 2938 2094 
Q 2938 2591 2744 2837 
Q 2550 3084 2163 3084 
Q 1697 3084 1428 2787 
Q 1159 2491 1159 1978 
L 1159 0 
L 581 0 
L 581 4863 
L 1159 4863 
L 1159 2956 
Q 1366 3272 1645 3428 
Q 1925 3584 2291 3584 
Q 2894 3584 3203 3211 
Q 3513 2838 3513 2113 
z
" transform="scale(0.015625)"/>
      </defs>
      <use xlink:href="#DejaVuSans-47"/>
      <use xlink:href="#DejaVuSans-72" x="77.490234"/>
      <use xlink:href="#DejaVuSans-6f" x="116.353516"/>
      <use xlink:href="#DejaVuSans-75" x="177.535156"/>
      <use xlink:href="#DejaVuSans-6e" x="240.914062"/>
      <use xlink:href="#DejaVuSans-64" x="304.292969"/>
      <use xlink:href="#DejaVuSans-20" x="367.769531"/>
      <use xlink:href="#DejaVuSans-54" x="399.556641"/>
      <use xlink:href="#DejaVuSans-72" x="445.890625"/>
      <use xlink:href="#DejaVuSans-75" x="487.003906"/>
      <use xlink:href="#DejaVuSans-74" x="550.382812"/>
      <use xlink:href="#DejaVuSans-68" x="589.591797"/>
     </g>
    </g>
    <g id="line2d_5">
     <path d="M 253.384375 34.976562 
L 263.384375 34.976562 
L 273.384375 34.976562 
" style="fill: none; stroke: #9e3ca8; stroke-width: 2; stroke-linecap: square"/>
    </g>
    <g id="text_4">
     <!-- Predicted -->
     <g transform="translate(281.384375 38.476562) scale(0.1 -0.1)">
      <defs>
       <path id="DejaVuSans-50" d="M 1259 4147 
L 1259 2394 
L 2053 2394 
Q 2494 2394 2734 2622 
Q 2975 2850 2975 3272 
Q 2975 3691 2734 3919 
Q 2494 4147 2053 4147 
L 1259 4147 
z
M 628 4666 
L 2053 4666 
Q 2838 4666 3239 4311 
Q 3641 3956 3641 3272 
Q 3641 2581 3239 2228 
Q 2838 1875 2053 1875 
L 1259 1875 
L 1259 0 
L 628 0 
L 628 4666 
z
" transform="scale(0.015625)"/>
       <path id="DejaVuSans-63" d="M 3122 3366 
L 3122 2828 
Q 2878 2963 2633 3030 
Q 2388 3097 2138 3097 
Q 1578 3097 1268 2742 
Q 959 2388 959 1747 
Q 959 1106 1268 751 
Q 1578 397 2138 397 
Q 2388 397 2633 464 
Q 2878 531 3122 666 
L 3122 134 
Q 2881 22 2623 -34 
Q 2366 -91 2075 -91 
Q 1284 -91 818 406 
Q 353 903 353 1747 
Q 353 2603 823 3093 
Q 1294 3584 2113 3584 
Q 2378 3584 2631 3529 
Q 2884 3475 3122 3366 
z
" transform="scale(0.015625)"/>
      </defs>
      <use xlink:href="#DejaVuSans-50"/>
      <use xlink:href="#DejaVuSans-72" x="58.552734"/>
      <use xlink:href="#DejaVuSans-65" x="97.416016"/>
      <use xlink:href="#DejaVuSans-64" x="158.939453"/>
      <use xlink:href="#DejaVuSans-69" x="222.416016"/>
      <use xlink:href="#DejaVuSans-63" x="250.199219"/>
      <use xlink:href="#DejaVuSans-74" x="305.179688"/>
      <use xlink:href="#DejaVuSans-65" x="344.388672"/>
      <use xlink:href="#DejaVuSans-64" x="405.912109"/>
     </g>
    </g>
   </g>
  </g>
 </g>
 <defs>
  <clipPath id="pea14553d70">
   <rect x="20.878125" y="7.2" width="334.8" height="332.64"/>
  </clipPath>
 </defs>
</svg>
