<?xml version="1.0" encoding="utf-8" standalone="no"?>
<!DOCTYPE svg PUBLIC "-//W3C//DTD SVG 1.1//EN"
  "http://www.w3.org/Graphics/SVG/1.1/DTD/svg11.dtd">
<svg xmlns:xlink="http://www.w3.org/1999/xlink" width="684pt" height="125.28pt" viewBox="0 0 684 125.28" xmlns="http://www.w3.org/2000/svg" version="1.1">
 <metadata>
  <rdf:RDF xmlns:dc="http://purl.org/dc/elements/1.1/" xmlns:cc="http://creativecommons.org/ns#" xmlns:rdf="http://www.w3.org/1999/02/22-rdf-syntax-ns#">
   <cc:Work>
    <dc:type rdf:resource="http://purl.org/dc/dcmitype/StillImage"/>
    <dc:date>2024-04-19T06:07:30.186087</dc:date>
    <dc:format>image/svg+xml</dc:format>
    <dc:creator>
     <cc:Agent>
      <dc:title>Matplotlib v3.8.0, https://matplotlib.org/</dc:title>
     </cc:Agent>
    </dc:creator>
   </cc:Work>
  </rdf:RDF>
 </metadata>
 <defs>
  <style type="text/css">*{stroke-linejoin: round; stroke-linecap: butt}</style>
 </defs>
 <g id="figure_1">
  <g id="patch_1">
   <path d="M 0 125.28 
L 684 125.28 
L 684 0 
L 0 0 
z
" style="fill: #ffffff"/>
  </g>
  <g id="axes_1">
   <g id="patch_2">
    <path d="M 7.2 118.08 
L 676.8 118.08 
L 676.8 7.2 
L 7.2 7.2 
z
" style="fill: #ffffff"/>
   </g>
   <g id="matplotlib.axis_1"/>
   <g id="matplotlib.axis_2"/>
   <g id="line2d_1">
    <path d="M 37.636364 67.37185 
L 44.044019 65.54175 
L 50.451675 61.065537 
L 56.85933 50.816914 
L 63.266986 42.275724 
L 69.674641 46.745259 
L 76.082297 42.400073 
L 82.489952 43.092299 
L 88.897608 43.564365 
L 95.305263 41.686512 
L 101.712919 41.027735 
L 108.120574 34.376682 
L 114.52823 30.896111 
L 120.935885 30.339636 
L 127.343541 28.309648 
L 133.751196 26.783604 
L 140.158852 19.950502 
L 146.566507 20.888783 
L 152.974163 19.456983 
L 159.381818 23.36315 
L 165.789474 35.039132 
L 172.197129 32.049837 
L 178.604785 28.096378 
L 185.01244 31.490636 
L 191.420096 21.110017 
L 197.827751 27.761492 
L 204.235407 27.552217 
L 210.643062 28.408294 
L 217.050718 21.398199 
L 223.458373 14.678154 
L 229.866029 13.969509 
L 236.273684 12.24 
L 242.68134 16.300247 
L 249.088995 25.359329 
L 255.496651 26.950489 
L 261.904306 26.235434 
L 268.311962 20.608757 
L 274.719617 15.109727 
L 281.127273 16.881149 
L 287.534928 18.263717 
L 293.942584 23.059226 
L 300.350239 29.553612 
L 306.757895 37.357161 
L 313.16555 28.435379 
L 319.573206 30.76625 
L 325.980861 32.769763 
L 332.388517 38.499365 
L 338.796172 34.943548 
L 345.203828 42.324636 
L 351.611483 43.297594 
L 358.019139 47.392969 
L 364.426794 45.623488 
L 370.83445 47.959632 
L 377.242105 53.359199 
L 383.649761 53.488089 
L 390.057416 51.529133 
L 396.465072 51.22492 
L 402.872727 49.841578 
L 409.280383 52.742621 
L 415.688038 54.401601 
L 422.095694 57.477068 
L 428.503349 59.121468 
L 434.911005 62.840355 
L 441.31866 70.73543 
L 447.726316 69.923979 
L 454.133971 71.761506 
L 460.541627 79.217143 
L 466.949282 77.10063 
L 473.356938 81.250117 
L 479.764593 81.012547 
L 486.172249 77.678085 
L 492.579904 77.088188 
L 498.98756 71.877191 
L 505.395215 77.52461 
L 511.802871 75.684519 
L 518.210526 78.816467 
L 524.618182 82.799018 
L 531.025837 85.44636 
L 537.433493 86.871231 
L 543.841148 86.614362 
L 550.248804 91.943121 
L 556.656459 87.823232 
L 563.064115 85.693547 
L 569.47177 92.719486 
L 575.879426 85.913033 
L 582.287081 77.242271 
L 588.694737 71.851177 
L 595.102392 72.674055 
L 601.510048 77.571093 
L 607.917703 72.748606 
L 614.325359 74.592518 
L 620.733014 69.001721 
L 627.14067 68.049185 
L 633.548325 63.582571 
L 639.955981 61.952746 
L 646.363636 58.721266 
" clip-path="url(#p0944675e19)" style="fill: none; stroke: #1f77b4; stroke-width: 2; stroke-linecap: square"/>
   </g>
   <g id="line2d_2">
    <path d="M 345.203828 42.324636 
L 351.611483 43.297594 
L 358.019139 105.176689 
L 364.426794 111.163475 
L 370.83445 113.04 
L 377.242105 110.495957 
L 383.649761 109.601082 
L 390.057416 111.860834 
L 396.465072 109.207678 
L 402.872727 109.341728 
L 409.280383 106.855326 
L 415.688038 109.84824 
L 422.095694 108.526265 
L 428.503349 104.451514 
L 434.911005 102.197108 
L 441.31866 95.350786 
L 447.726316 91.997602 
L 454.133971 87.221265 
L 460.541627 84.271831 
L 466.949282 80.604309 
L 473.356938 80.077528 
L 479.764593 84.48627 
L 486.172249 85.34584 
L 492.579904 84.925473 
L 498.98756 82.58108 
L 505.395215 83.748416 
L 511.802871 80.063889 
L 518.210526 77.308359 
L 524.618182 78.197173 
L 531.025837 76.126308 
L 537.433493 76.045162 
L 543.841148 76.081138 
L 550.248804 77.599394 
L 556.656459 75.368081 
L 563.064115 74.490752 
L 569.47177 79.187939 
L 575.879426 82.292997 
L 582.287081 87.156196 
L 588.694737 86.86233 
L 595.102392 92.659769 
L 601.510048 95.690479 
L 607.917703 94.888287 
L 614.325359 95.668219 
L 620.733014 91.44162 
L 627.14067 96.968774 
L 633.548325 96.457237 
L 639.955981 93.0294 
L 646.363636 90.432905 
" clip-path="url(#p0944675e19)" style="fill: none; stroke-dasharray: 7.4,3.2; stroke-dashoffset: 0; stroke: #9e3ca8; stroke-opacity: 0.9; stroke-width: 2"/>
   </g>
   <g id="line2d_3">
    <path d="M 345.203828 42.324636 
L 351.611483 43.297594 
L 358.019139 35.570108 
L 364.426794 29.693444 
L 370.83445 27.420959 
L 377.242105 28.375759 
L 383.649761 31.133261 
L 390.057416 33.424291 
L 396.465072 34.064221 
L 402.872727 32.175275 
L 409.280383 34.657525 
L 415.688038 34.66736 
L 422.095694 36.108139 
L 428.503349 38.167551 
L 434.911005 40.695997 
L 441.31866 44.406915 
L 447.726316 47.501041 
L 454.133971 50.641234 
L 460.541627 51.888116 
L 466.949282 51.979015 
L 473.356938 54.505257 
L 479.764593 54.319021 
L 486.172249 52.019206 
L 492.579904 51.742106 
L 498.98756 52.256492 
L 505.395215 59.073893 
L 511.802871 61.391909 
L 518.210526 61.666204 
L 524.618182 64.356233 
L 531.025837 67.861024 
L 537.433493 69.847778 
L 543.841148 68.094806 
L 550.248804 66.92852 
L 556.656459 70.587332 
L 563.064115 71.83222 
L 569.47177 68.142801 
L 575.879426 65.128811 
L 582.287081 61.664412 
L 588.694737 60.67106 
L 595.102392 57.62234 
L 601.510048 54.277066 
L 607.917703 55.59812 
L 614.325359 55.426528 
L 620.733014 55.053801 
L 627.14067 50.002882 
L 633.548325 46.843097 
L 639.955981 50.847946 
L 646.363636 54.422312 
" clip-path="url(#p0944675e19)" style="fill: none; stroke-dasharray: 7.4,3.2; stroke-dashoffset: 0; stroke: #9e3ca8; stroke-opacity: 0.9; stroke-width: 2"/>
   </g>
   <g id="line2d_4">
    <path d="M 345.203828 42.324636 
L 351.611483 43.297594 
L 358.019139 33.471943 
L 364.426794 28.432357 
L 370.83445 27.564458 
L 377.242105 26.684884 
L 383.649761 28.36093 
L 390.057416 30.845509 
L 396.465072 30.377232 
L 402.872727 28.873704 
L 409.280383 31.07884 
L 415.688038 34.476903 
L 422.095694 34.118607 
L 428.503349 34.30624 
L 434.911005 39.070317 
L 441.31866 43.194772 
L 447.726316 49.447688 
L 454.133971 51.02689 
L 460.541627 56.961822 
L 466.949282 60.506443 
L 473.356938 61.601703 
L 479.764593 60.460704 
L 486.172249 59.776043 
L 492.579904 60.48943 
L 498.98756 56.950769 
L 505.395215 55.677323 
L 511.802871 56.095682 
L 518.210526 57.260087 
L 524.618182 56.198925 
L 531.025837 62.228449 
L 537.433493 62.755121 
L 543.841148 63.796356 
L 550.248804 64.799423 
L 556.656459 66.756098 
L 563.064115 66.452037 
L 569.47177 60.840245 
L 575.879426 63.569093 
L 582.287081 58.491634 
L 588.694737 56.311822 
L 595.102392 50.832102 
L 601.510048 50.753071 
L 607.917703 46.860464 
L 614.325359 42.694525 
L 620.733014 43.398392 
L 627.14067 42.220289 
L 633.548325 39.591265 
L 639.955981 42.591987 
L 646.363636 49.921712 
" clip-path="url(#p0944675e19)" style="fill: none; stroke-dasharray: 7.4,3.2; stroke-dashoffset: 0; stroke: #9e3ca8; stroke-opacity: 0.9; stroke-width: 2"/>
   </g>
   <g id="line2d_5">
    <path d="M 345.203828 42.324636 
L 351.611483 43.297594 
L 358.019139 67.684259 
L 364.426794 66.38608 
L 370.83445 64.646634 
L 377.242105 66.636631 
L 383.649761 66.977639 
L 390.057416 67.029622 
L 396.465072 65.832352 
L 402.872727 66.418168 
L 409.280383 68.103256 
L 415.688038 71.388237 
L 422.095694 75.24313 
L 428.503349 78.862491 
L 434.911005 86.042101 
L 441.31866 90.143474 
L 447.726316 94.553699 
L 454.133971 95.375862 
L 460.541627 98.057779 
L 466.949282 101.420225 
L 473.356938 103.297505 
L 479.764593 104.219242 
L 486.172249 101.932781 
L 492.579904 104.636006 
L 498.98756 104.216819 
L 505.395215 102.155613 
L 511.802871 101.255707 
L 518.210526 102.955079 
L 524.618182 107.212339 
L 531.025837 107.248462 
L 537.433493 108.41673 
L 543.841148 109.62596 
L 550.248804 108.904706 
L 556.656459 108.86842 
L 563.064115 107.181759 
L 569.47177 106.619974 
L 575.879426 103.271935 
L 582.287081 100.866936 
L 588.694737 100.983019 
L 595.102392 99.032974 
L 601.510048 99.625441 
L 607.917703 95.497948 
L 614.325359 94.976642 
L 620.733014 90.2749 
L 627.14067 83.866461 
L 633.548325 83.505317 
L 639.955981 78.573523 
L 646.363636 77.569074 
" clip-path="url(#p0944675e19)" style="fill: none; stroke-dasharray: 7.4,3.2; stroke-dashoffset: 0; stroke: #9e3ca8; stroke-opacity: 0.9; stroke-width: 2"/>
   </g>
   <g id="line2d_6">
    <path clip-path="url(#p0944675e19)" style="fill: none; stroke-dasharray: 7.4,3.2; stroke-dashoffset: 0; stroke: #9e3ca8; stroke-width: 2"/>
   </g>
   <g id="line2d_7">
    <path d="M 345.203828 118.08 
L 345.203828 7.2 
" clip-path="url(#p0944675e19)" style="fill: none; stroke-dasharray: 7.4,3.2; stroke-dashoffset: 0; stroke: #808080; stroke-width: 2"/>
   </g>
   <g id="patch_3">
    <path d="M 7.2 118.08 
L 7.2 7.2 
" style="fill: none; stroke: #000000; stroke-width: 0.8; stroke-linejoin: miter; stroke-linecap: square"/>
   </g>
   <g id="patch_4">
    <path d="M 676.8 118.08 
L 676.8 7.2 
" style="fill: none; stroke: #000000; stroke-width: 0.8; stroke-linejoin: miter; stroke-linecap: square"/>
   </g>
   <g id="patch_5">
    <path d="M 7.2 118.08 
L 676.8 118.08 
" style="fill: none; stroke: #000000; stroke-width: 0.8; stroke-linejoin: miter; stroke-linecap: square"/>
   </g>
   <g id="patch_6">
    <path d="M 7.2 7.2 
L 676.8 7.2 
" style="fill: none; stroke: #000000; stroke-width: 0.8; stroke-linejoin: miter; stroke-linecap: square"/>
   </g>
   <g id="legend_1">
    <g id="patch_7">
     <path d="M 18.4 110.08 
L 174.07 110.08 
Q 177.27 110.08 177.27 106.88 
L 177.27 61.51 
Q 177.27 58.31 174.07 58.31 
L 18.4 58.31 
Q 15.2 58.31 15.2 61.51 
L 15.2 106.88 
Q 15.2 110.08 18.4 110.08 
z
" style="fill: #ffffff; opacity: 0.8; stroke: #cccccc; stroke-linejoin: miter"/>
    </g>
    <g id="line2d_8">
     <path d="M 21.6 71.2675 
L 37.6 71.2675 
L 53.6 71.2675 
" style="fill: none; stroke: #1f77b4; stroke-width: 2; stroke-linecap: square"/>
    </g>
    <g id="text_1">
     <!-- Ground Truth -->
     <g transform="translate(66.4 76.8675) scale(0.16 -0.16)">
      <defs>
       <path id="DejaVuSans-47" d="M 3809 666 
L 3809 1919 
L 2778 1919 
L 2778 2438 
L 4434 2438 
L 4434 434 
Q 4069 175 3628 42 
Q 3188 -91 2688 -91 
Q 1594 -91 976 548 
Q 359 1188 359 2328 
Q 359 3472 976 4111 
Q 1594 4750 2688 4750 
Q 3144 4750 3555 4637 
Q 3966 4525 4313 4306 
L 4313 3634 
Q 3963 3931 3569 4081 
Q 3175 4231 2741 4231 
Q 1884 4231 1454 3753 
Q 1025 3275 1025 2328 
Q 1025 1384 1454 906 
Q 1884 428 2741 428 
Q 3075 428 3337 486 
Q 3600 544 3809 666 
z
" transform="scale(0.015625)"/>
       <path id="DejaVuSans-72" d="M 2631 2963 
Q 2534 3019 2420 3045 
Q 2306 3072 2169 3072 
Q 1681 3072 1420 2755 
Q 1159 2438 1159 1844 
L 1159 0 
L 581 0 
L 581 3500 
L 1159 3500 
L 1159 2956 
Q 1341 3275 1631 3429 
Q 1922 3584 2338 3584 
Q 2397 3584 2469 3576 
Q 2541 3569 2628 3553 
L 2631 2963 
z
" transform="scale(0.015625)"/>
       <path id="DejaVuSans-6f" d="M 1959 3097 
Q 1497 3097 1228 2736 
Q 959 2375 959 1747 
Q 959 1119 1226 758 
Q 1494 397 1959 397 
Q 2419 397 2687 759 
Q 2956 1122 2956 1747 
Q 2956 2369 2687 2733 
Q 2419 3097 1959 3097 
z
M 1959 3584 
Q 2709 3584 3137 3096 
Q 3566 2609 3566 1747 
Q 3566 888 3137 398 
Q 2709 -91 1959 -91 
Q 1206 -91 779 398 
Q 353 888 353 1747 
Q 353 2609 779 3096 
Q 1206 3584 1959 3584 
z
" transform="scale(0.015625)"/>
       <path id="DejaVuSans-75" d="M 544 1381 
L 544 3500 
L 1119 3500 
L 1119 1403 
Q 1119 906 1312 657 
Q 1506 409 1894 409 
Q 2359 409 2629 706 
Q 2900 1003 2900 1516 
L 2900 3500 
L 3475 3500 
L 3475 0 
L 2900 0 
L 2900 538 
Q 2691 219 2414 64 
Q 2138 -91 1772 -91 
Q 1169 -91 856 284 
Q 544 659 544 1381 
z
M 1991 3584 
L 1991 3584 
z
" transform="scale(0.015625)"/>
       <path id="DejaVuSans-6e" d="M 3513 2113 
L 3513 0 
L 2938 0 
L 2938 2094 
Q 2938 2591 2744 2837 
Q 2550 3084 2163 3084 
Q 1697 3084 1428 2787 
Q 1159 2491 1159 1978 
L 1159 0 
L 581 0 
L 581 3500 
L 1159 3500 
L 1159 2956 
Q 1366 3272 1645 3428 
Q 1925 3584 2291 3584 
Q 2894 3584 3203 3211 
Q 3513 2838 3513 2113 
z
" transform="scale(0.015625)"/>
       <path id="DejaVuSans-64" d="M 2906 2969 
L 2906 4863 
L 3481 4863 
L 3481 0 
L 2906 0 
L 2906 525 
Q 2725 213 2448 61 
Q 2172 -91 1784 -91 
Q 1150 -91 751 415 
Q 353 922 353 1747 
Q 353 2572 751 3078 
Q 1150 3584 1784 3584 
Q 2172 3584 2448 3432 
Q 2725 3281 2906 2969 
z
M 947 1747 
Q 947 1113 1208 752 
Q 1469 391 1925 391 
Q 2381 391 2643 752 
Q 2906 1113 2906 1747 
Q 2906 2381 2643 2742 
Q 2381 3103 1925 3103 
Q 1469 3103 1208 2742 
Q 947 2381 947 1747 
z
" transform="scale(0.015625)"/>
       <path id="DejaVuSans-20" transform="scale(0.015625)"/>
       <path id="DejaVuSans-54" d="M -19 4666 
L 3928 4666 
L 3928 4134 
L 2272 4134 
L 2272 0 
L 1638 0 
L 1638 4134 
L -19 4134 
L -19 4666 
z
" transform="scale(0.015625)"/>
       <path id="DejaVuSans-74" d="M 1172 4494 
L 1172 3500 
L 2356 3500 
L 2356 3053 
L 1172 3053 
L 1172 1153 
Q 1172 725 1289 603 
Q 1406 481 1766 481 
L 2356 481 
L 2356 0 
L 1766 0 
Q 1100 0 847 248 
Q 594 497 594 1153 
L 594 3053 
L 172 3053 
L 172 3500 
L 594 3500 
L 594 4494 
L 1172 4494 
z
" transform="scale(0.015625)"/>
       <path id="DejaVuSans-68" d="M 3513 2113 
L 3513 0 
L 2938 0 
L 2938 2094 
Q 2938 2591 2744 2837 
Q 2550 3084 2163 3084 
Q 1697 3084 1428 2787 
Q 1159 2491 1159 1978 
L 1159 0 
L 581 0 
L 581 4863 
L 1159 4863 
L 1159 2956 
Q 1366 3272 1645 3428 
Q 1925 3584 2291 3584 
Q 2894 3584 3203 3211 
Q 3513 2838 3513 2113 
z
" transform="scale(0.015625)"/>
      </defs>
      <use xlink:href="#DejaVuSans-47"/>
      <use xlink:href="#DejaVuSans-72" x="77.490234"/>
      <use xlink:href="#DejaVuSans-6f" x="116.353516"/>
      <use xlink:href="#DejaVuSans-75" x="177.535156"/>
      <use xlink:href="#DejaVuSans-6e" x="240.914062"/>
      <use xlink:href="#DejaVuSans-64" x="304.292969"/>
      <use xlink:href="#DejaVuSans-20" x="367.769531"/>
      <use xlink:href="#DejaVuSans-54" x="399.556641"/>
      <use xlink:href="#DejaVuSans-72" x="445.890625"/>
      <use xlink:href="#DejaVuSans-75" x="487.003906"/>
      <use xlink:href="#DejaVuSans-74" x="550.382812"/>
      <use xlink:href="#DejaVuSans-68" x="589.591797"/>
     </g>
    </g>
    <g id="line2d_9">
     <path d="M 21.6 94.7525 
L 37.6 94.7525 
L 53.6 94.7525 
" style="fill: none; stroke-dasharray: 7.4,3.2; stroke-dashoffset: 0; stroke: #9e3ca8; stroke-width: 2"/>
    </g>
    <g id="text_2">
     <!-- Predicted -->
     <g transform="translate(66.4 100.3525) scale(0.16 -0.16)">
      <defs>
       <path id="DejaVuSans-50" d="M 1259 4147 
L 1259 2394 
L 2053 2394 
Q 2494 2394 2734 2622 
Q 2975 2850 2975 3272 
Q 2975 3691 2734 3919 
Q 2494 4147 2053 4147 
L 1259 4147 
z
M 628 4666 
L 2053 4666 
Q 2838 4666 3239 4311 
Q 3641 3956 3641 3272 
Q 3641 2581 3239 2228 
Q 2838 1875 2053 1875 
L 1259 1875 
L 1259 0 
L 628 0 
L 628 4666 
z
" transform="scale(0.015625)"/>
       <path id="DejaVuSans-65" d="M 3597 1894 
L 3597 1613 
L 953 1613 
Q 991 1019 1311 708 
Q 1631 397 2203 397 
Q 2534 397 2845 478 
Q 3156 559 3463 722 
L 3463 178 
Q 3153 47 2828 -22 
Q 2503 -91 2169 -91 
Q 1331 -91 842 396 
Q 353 884 353 1716 
Q 353 2575 817 3079 
Q 1281 3584 2069 3584 
Q 2775 3584 3186 3129 
Q 3597 2675 3597 1894 
z
M 3022 2063 
Q 3016 2534 2758 2815 
Q 2500 3097 2075 3097 
Q 1594 3097 1305 2825 
Q 1016 2553 972 2059 
L 3022 2063 
z
" transform="scale(0.015625)"/>
       <path id="DejaVuSans-69" d="M 603 3500 
L 1178 3500 
L 1178 0 
L 603 0 
L 603 3500 
z
M 603 4863 
L 1178 4863 
L 1178 4134 
L 603 4134 
L 603 4863 
z
" transform="scale(0.015625)"/>
       <path id="DejaVuSans-63" d="M 3122 3366 
L 3122 2828 
Q 2878 2963 2633 3030 
Q 2388 3097 2138 3097 
Q 1578 3097 1268 2742 
Q 959 2388 959 1747 
Q 959 1106 1268 751 
Q 1578 397 2138 397 
Q 2388 397 2633 464 
Q 2878 531 3122 666 
L 3122 134 
Q 2881 22 2623 -34 
Q 2366 -91 2075 -91 
Q 1284 -91 818 406 
Q 353 903 353 1747 
Q 353 2603 823 3093 
Q 1294 3584 2113 3584 
Q 2378 3584 2631 3529 
Q 2884 3475 3122 3366 
z
" transform="scale(0.015625)"/>
      </defs>
      <use xlink:href="#DejaVuSans-50"/>
      <use xlink:href="#DejaVuSans-72" x="58.552734"/>
      <use xlink:href="#DejaVuSans-65" x="97.416016"/>
      <use xlink:href="#DejaVuSans-64" x="158.939453"/>
      <use xlink:href="#DejaVuSans-69" x="222.416016"/>
      <use xlink:href="#DejaVuSans-63" x="250.199219"/>
      <use xlink:href="#DejaVuSans-74" x="305.179688"/>
      <use xlink:href="#DejaVuSans-65" x="344.388672"/>
      <use xlink:href="#DejaVuSans-64" x="405.912109"/>
     </g>
    </g>
   </g>
  </g>
 </g>
 <defs>
  <clipPath id="p0944675e19">
   <rect x="7.2" y="7.2" width="669.6" height="110.88"/>
  </clipPath>
 </defs>
</svg>
